<?xml version="1.0" encoding="utf-8"?>
<!-- Generator: Adobe Illustrator 16.0.2, SVG Export Plug-In . SVG Version: 6.00 Build 0)  -->
<!DOCTYPE svg PUBLIC "-//W3C//DTD SVG 1.1//EN" "http://www.w3.org/Graphics/SVG/1.1/DTD/svg11.dtd">
<svg version="1.1" id="Layer_1" xmlns="http://www.w3.org/2000/svg" xmlns:xlink="http://www.w3.org/1999/xlink" x="0px" y="0px"
	 width="216.995px" height="28.347px" viewBox="0 0 216.995 28.347" enable-background="new 0 0 216.995 28.347"
	 xml:space="preserve">
<g>
	<g>
		<g>
			<path fill="#016BFD" d="M17.473,14.489H10.72c-1.875,0-3.407,1.533-3.407,3.406v0.232c0,1.873-1.533,3.406-3.408,3.406H3.562
				H3.408H0v6.812h3.407h0.154h0.343c1.875,0,3.408-1.532,3.408-3.405s1.533-3.406,3.407-3.406h6.908
				c1.873,0,3.407-1.533,3.407-3.406v-0.074v-0.158v-3.406h-3.407H17.473z"/>
			<path fill="#016BFD" d="M24.739,0h-1.551H10.519C8.645,0,7.112,1.533,7.112,3.407v0.447c0,1.874-1.534,3.407-3.407,3.407H0v2.228
				v1.593v3.407h3.407h0.497h0.202v-0.011c1.78-0.105,3.206-1.591,3.206-3.396v-0.163c0-1.874,1.533-3.407,3.407-3.407h14.02
				c1.874,0,3.407-1.533,3.407-3.407V3.407V0H24.739z"/>
		</g>
	</g>
	<g>
		<g>
			<g>
				<g transform="translate(42.84377, 67.146669)">
					<g>
						<path fill="#1C262E" d="M17.229-55.969c0.695-1.173,1.597-2.067,2.702-2.689c1.112-0.618,2.384-0.93,3.811-0.93v6.092
							c-0.229-0.025-0.57-0.038-1.02-0.038c-1.565,0-2.836,0.37-3.811,1.109c-0.969,0.732-1.529,1.732-1.683,3.008v10.324h-6.653
							v-20.241h6.653V-55.969z"/>
					</g>
				</g>
			</g>
			<g>
				<g transform="translate(61.415543, 67.146669)">
					<g>
						<path fill="#1C262E" d="M16.535-59.55c2.199,0,4.133,0.43,5.799,1.287c1.673,0.86,2.97,2.071,3.888,3.633
							c0.924,1.555,1.39,3.357,1.39,5.404c0,2.064-0.466,3.881-1.39,5.441c-0.918,1.556-2.215,2.766-3.888,3.633
							c-1.667,0.86-3.601,1.287-5.799,1.287c-2.192,0-4.126-0.427-5.799-1.287c-1.667-0.867-2.957-2.077-3.875-3.633
							c-0.911-1.561-1.364-3.377-1.364-5.441c0-2.047,0.453-3.85,1.364-5.404c0.918-1.562,2.208-2.772,3.875-3.633
							C12.409-59.12,14.343-59.55,16.535-59.55z M16.535-54.172c-1.293,0-2.339,0.466-3.136,1.39
							c-0.799,0.918-1.198,2.125-1.198,3.619c0,1.529,0.398,2.76,1.198,3.684c0.797,0.918,1.842,1.377,3.136,1.377
							c1.326,0,2.387-0.459,3.186-1.377c0.797-0.924,1.198-2.154,1.198-3.684c0-1.494-0.408-2.701-1.224-3.619
							C18.887-53.706,17.835-54.172,16.535-54.172z"/>
					</g>
				</g>
			</g>
			<g>
				<g transform="translate(89.5255, 67.146669)">
					<g>
						<path fill="#1C262E" d="M15.319-59.588c2.225,0,4.006,0.697,5.341,2.09c1.332,1.396,2,3.275,2,5.646v12.759h-6.627v-10.848
							c0-1.146-0.314-2.052-0.943-2.714c-0.621-0.663-1.453-0.994-2.498-0.994c-1.096,0.025-2.001,0.392-2.715,1.096
							c-0.707,0.698-1.122,1.618-1.249,2.766v10.694H1.974v-20.241h6.653v3.289c0.72-1.163,1.647-2.043,2.778-2.639
							C12.544-59.286,13.848-59.588,15.319-59.588z"/>
					</g>
				</g>
			</g>
			<g>
				<g transform="translate(119.286306, 67.146669)">
					<g>
						<path fill="#1C262E" d="M9.657-40.139c-0.75,0.427-1.613,0.759-2.588,0.994C6.1-38.915,5.112-38.8,4.112-38.8
							c-1.988,0-3.604-0.574-4.844-1.721c-1.232-1.148-1.848-2.729-1.848-4.742v-8.68h-2.805v-4.423h2.805v-5.607h6.615v5.607h5.238
							v4.423H4.036v7.635c0,1.422,0.586,2.129,1.76,2.129c0.729,0,1.592-0.224,2.586-0.676L9.657-40.139z"/>
					</g>
				</g>
			</g>
			<g>
				<g transform="translate(138.179078, 67.146669)">
					<g>
						<path fill="#1C262E" d="M6.774-66.854h6.654v27.761H6.774v-2.613C6.067-40.763,5.21-40.043,4.2-39.552
							c-1.004,0.484-2.141,0.727-3.416,0.727c-1.871,0-3.518-0.438-4.945-1.313c-1.422-0.873-2.523-2.103-3.314-3.683
							c-0.783-1.588-1.172-3.416-1.172-5.48c0-2.047,0.385-3.844,1.16-5.393c0.771-1.545,1.854-2.74,3.25-3.581
							c1.402-0.848,3.023-1.274,4.869-1.274c1.299,0,2.465,0.252,3.504,0.752c1.035,0.494,1.916,1.204,2.639,2.128V-66.854z
							 M2.428-44.064c1.299,0,2.348-0.466,3.148-1.402c0.797-0.934,1.197-2.154,1.197-3.658c0-1.521-0.4-2.74-1.197-3.658
							c-0.801-0.924-1.85-1.39-3.148-1.39c-1.295,0-2.346,0.469-3.162,1.402c-0.809,0.938-1.211,2.151-1.211,3.646
							c0,1.504,0.402,2.725,1.211,3.658C0.083-44.529,1.133-44.064,2.428-44.064z"/>
					</g>
				</g>
			</g>
			<g>
				<g transform="translate(168.536022, 67.146669)">
					<g>
						<path fill="#1C262E" d="M-3.688-59.55c3.295,0,5.828,0.975,7.596,2.919c1.766,1.937,2.652,4.607,2.652,8.003
							c0,0.52-0.014,0.916-0.039,1.186H-7.538c0.322,1.156,0.883,2.04,1.682,2.652c0.799,0.605,1.773,0.904,2.92,0.904
							c0.873,0,1.715-0.172,2.523-0.522c0.807-0.348,1.549-0.857,2.23-1.529l3.48,3.479c-1.055,1.172-2.326,2.064-3.813,2.676
							c-1.477,0.613-3.154,0.918-5.021,0.918c-2.166,0-4.063-0.424-5.684-1.274c-1.625-0.847-2.869-2.046-3.734-3.595
							c-0.861-1.545-1.287-3.342-1.287-5.391c0-2.065,0.436-3.888,1.313-5.468c0.873-1.587,2.109-2.811,3.709-3.671
							C-7.624-59.12-5.778-59.55-3.688-59.55z M0.097-50.986c0-1.172-0.344-2.115-1.031-2.829c-0.689-0.714-1.594-1.07-2.717-1.07
							c-1.045,0-1.924,0.354-2.637,1.058c-0.715,0.697-1.184,1.644-1.402,2.842H0.097z"/>
					</g>
				</g>
			</g>
			<g>
				<g transform="translate(195.041, 67.146669)">
					<g>
						<path fill="#1C262E" d="M-3.971-52.936c-2.621-1.366-4.764-2.052-6.438-2.052c-0.57,0-1.029,0.108-1.375,0.318
							c-0.352,0.214-0.523,0.529-0.523,0.943c0,0.453,0.271,0.815,0.814,1.097c0.553,0.273,1.43,0.57,2.627,0.892
							c1.443,0.428,2.645,0.848,3.607,1.262c0.959,0.408,1.787,1.029,2.484,1.861c0.695,0.834,1.045,1.924,1.045,3.275
							c0,2.049-0.797,3.652-2.383,4.805c-1.58,1.157-3.643,1.734-6.182,1.734c-1.719,0-3.361-0.242-4.932-0.727
							c-1.576-0.484-2.971-1.201-4.195-2.154l2.092-4.295c1.146,0.799,2.348,1.42,3.605,1.86c1.266,0.434,2.461,0.649,3.582,0.649
							c0.645,0,1.16-0.105,1.543-0.318c0.389-0.21,0.586-0.516,0.586-0.918c0-0.5-0.281-0.885-0.842-1.159
							c-0.561-0.28-1.439-0.58-2.639-0.905c-1.42-0.424-2.594-0.841-3.518-1.249c-0.918-0.407-1.721-1.022-2.408-1.849
							c-0.688-0.821-1.033-1.898-1.033-3.224c0-2.039,0.771-3.636,2.32-4.793c1.547-1.163,3.543-1.746,5.99-1.746
							c1.469,0,2.922,0.201,4.359,0.6c1.434,0.401,2.785,0.987,4.053,1.759L-3.971-52.936z"/>
					</g>
				</g>
			</g>
			<g>
				<g transform="translate(217.602307, 67.146669)">
					<g>
						<path fill="#1C262E" d="M-0.608-39.093H-8.46l-4.27-7.635l-2.053,2.141v5.494h-6.666v-27.761h6.666v14.364l6.463-6.845h7.559
							l-7.406,7.826L-0.608-39.093z"/>
					</g>
				</g>
			</g>
			<g>
				<g transform="translate(42.84377, 67.146669)">
					<g>
						<path fill="#1C262E" d="M17.229-55.969c0.695-1.173,1.597-2.067,2.702-2.689c1.112-0.618,2.384-0.93,3.811-0.93v6.092
							c-0.229-0.025-0.57-0.038-1.02-0.038c-1.565,0-2.836,0.37-3.811,1.109c-0.969,0.732-1.529,1.732-1.683,3.008v10.324h-6.653
							v-20.241h6.653V-55.969z"/>
					</g>
				</g>
			</g>
			<g>
				<g transform="translate(61.415543, 67.146669)">
					<g>
						<path fill="#1C262E" d="M16.535-59.55c2.199,0,4.133,0.43,5.799,1.287c1.673,0.86,2.97,2.071,3.888,3.633
							c0.924,1.555,1.39,3.357,1.39,5.404c0,2.064-0.466,3.881-1.39,5.441c-0.918,1.556-2.215,2.766-3.888,3.633
							c-1.667,0.86-3.601,1.287-5.799,1.287c-2.192,0-4.126-0.427-5.799-1.287c-1.667-0.867-2.957-2.077-3.875-3.633
							c-0.911-1.561-1.364-3.377-1.364-5.441c0-2.047,0.453-3.85,1.364-5.404c0.918-1.562,2.208-2.772,3.875-3.633
							C12.409-59.12,14.343-59.55,16.535-59.55z M16.535-54.172c-1.293,0-2.339,0.466-3.136,1.39
							c-0.799,0.918-1.198,2.125-1.198,3.619c0,1.529,0.398,2.76,1.198,3.684c0.797,0.918,1.842,1.377,3.136,1.377
							c1.326,0,2.387-0.459,3.186-1.377c0.797-0.924,1.198-2.154,1.198-3.684c0-1.494-0.408-2.701-1.224-3.619
							C18.887-53.706,17.835-54.172,16.535-54.172z"/>
					</g>
				</g>
			</g>
			<g>
				<g transform="translate(89.5255, 67.146669)">
					<g>
						<path fill="#1C262E" d="M15.319-59.588c2.225,0,4.006,0.697,5.341,2.09c1.332,1.396,2,3.275,2,5.646v12.759h-6.627v-10.848
							c0-1.146-0.314-2.052-0.943-2.714c-0.621-0.663-1.453-0.994-2.498-0.994c-1.096,0.025-2.001,0.392-2.715,1.096
							c-0.707,0.698-1.122,1.618-1.249,2.766v10.694H1.975v-20.241h6.653v3.289c0.72-1.163,1.647-2.043,2.778-2.639
							C12.544-59.286,13.848-59.588,15.319-59.588z"/>
					</g>
				</g>
			</g>
			<g>
				<g transform="translate(119.286306, 67.146669)">
					<g>
						<path fill="#1C262E" d="M9.657-40.139c-0.75,0.427-1.613,0.759-2.588,0.994C6.1-38.915,5.112-38.8,4.112-38.8
							c-1.988,0-3.604-0.574-4.844-1.721c-1.232-1.148-1.848-2.729-1.848-4.742v-8.68h-2.805v-4.423h2.805v-5.607h6.615v5.607h5.238
							v4.423H4.036v7.635c0,1.422,0.586,2.129,1.76,2.129c0.729,0,1.592-0.224,2.586-0.676L9.657-40.139z"/>
					</g>
				</g>
			</g>
			<g>
				<g transform="translate(138.179078, 67.146669)">
					<g>
						<path fill="#1C262E" d="M6.774-66.854h6.654v27.761H6.774v-2.613C6.067-40.763,5.21-40.043,4.2-39.552
							c-1.004,0.484-2.141,0.727-3.416,0.727c-1.871,0-3.518-0.438-4.945-1.313c-1.422-0.873-2.523-2.103-3.314-3.683
							c-0.783-1.588-1.172-3.416-1.172-5.48c0-2.047,0.385-3.844,1.16-5.393c0.771-1.545,1.854-2.74,3.25-3.581
							c1.402-0.848,3.023-1.274,4.869-1.274c1.299,0,2.465,0.252,3.504,0.752c1.035,0.494,1.916,1.204,2.639,2.128V-66.854z
							 M2.428-44.064c1.299,0,2.348-0.466,3.148-1.402c0.797-0.934,1.197-2.154,1.197-3.658c0-1.521-0.4-2.74-1.197-3.658
							c-0.801-0.924-1.85-1.39-3.148-1.39c-1.295,0-2.346,0.469-3.162,1.402c-0.809,0.938-1.211,2.151-1.211,3.646
							c0,1.504,0.402,2.725,1.211,3.658C0.083-44.529,1.133-44.064,2.428-44.064z"/>
					</g>
				</g>
			</g>
			<g>
				<g transform="translate(168.536022, 67.146669)">
					<g>
						<path fill="#1C262E" d="M-3.688-59.55c3.295,0,5.828,0.975,7.596,2.919c1.766,1.937,2.652,4.607,2.652,8.003
							c0,0.52-0.014,0.916-0.039,1.186H-7.538c0.322,1.156,0.883,2.04,1.682,2.652c0.799,0.605,1.773,0.904,2.92,0.904
							c0.873,0,1.715-0.172,2.523-0.522c0.807-0.348,1.549-0.857,2.23-1.529l3.48,3.479c-1.055,1.172-2.326,2.064-3.813,2.676
							c-1.477,0.613-3.154,0.918-5.021,0.918c-2.166,0-4.063-0.424-5.684-1.274c-1.625-0.847-2.869-2.046-3.734-3.595
							c-0.861-1.545-1.287-3.342-1.287-5.391c0-2.065,0.436-3.888,1.313-5.468c0.873-1.587,2.109-2.811,3.709-3.671
							C-7.624-59.12-5.778-59.55-3.688-59.55z M0.097-50.986c0-1.172-0.344-2.115-1.031-2.829c-0.689-0.714-1.594-1.07-2.717-1.07
							c-1.045,0-1.924,0.354-2.637,1.058c-0.715,0.697-1.184,1.644-1.402,2.842H0.097z"/>
					</g>
				</g>
			</g>
			<g>
				<g transform="translate(195.041, 67.146669)">
					<g>
						<path fill="#1C262E" d="M-3.971-52.936c-2.621-1.366-4.764-2.052-6.438-2.052c-0.57,0-1.029,0.108-1.375,0.318
							c-0.352,0.214-0.523,0.529-0.523,0.943c0,0.453,0.271,0.815,0.814,1.097c0.553,0.273,1.43,0.57,2.627,0.892
							c1.443,0.428,2.645,0.848,3.607,1.262c0.959,0.408,1.787,1.029,2.484,1.861c0.695,0.834,1.045,1.924,1.045,3.275
							c0,2.049-0.797,3.652-2.383,4.805c-1.58,1.157-3.643,1.734-6.182,1.734c-1.719,0-3.361-0.242-4.932-0.727
							c-1.576-0.484-2.971-1.201-4.195-2.154l2.092-4.295c1.146,0.799,2.348,1.42,3.605,1.86c1.266,0.434,2.461,0.649,3.582,0.649
							c0.645,0,1.16-0.105,1.543-0.318c0.389-0.21,0.586-0.516,0.586-0.918c0-0.5-0.281-0.885-0.842-1.159
							c-0.561-0.28-1.439-0.58-2.639-0.905c-1.42-0.424-2.594-0.841-3.518-1.249c-0.918-0.407-1.721-1.022-2.408-1.849
							c-0.688-0.821-1.033-1.898-1.033-3.224c0-2.039,0.771-3.636,2.32-4.793c1.547-1.163,3.543-1.746,5.99-1.746
							c1.469,0,2.922,0.201,4.359,0.6c1.434,0.401,2.785,0.987,4.053,1.759L-3.971-52.936z"/>
					</g>
				</g>
			</g>
			<g>
				<g transform="translate(217.602307, 67.146669)">
					<g>
						<path fill="#1C262E" d="M-0.608-39.093H-8.46l-4.27-7.635l-2.053,2.141v5.494h-6.666v-27.761h6.666v14.364l6.463-6.845h7.559
							l-7.406,7.826L-0.608-39.093z"/>
					</g>
				</g>
			</g>
		</g>
		<g>
			<g transform="translate(25.831115, 67.146669)">
				<g>
					<path fill="#1C262E" d="M22.806-61.831c-0.673,0-1.221,0.188-1.645,0.561c-0.427,0.376-0.637,0.911-0.637,1.605v1.3h4.487
						v4.423h-4.487v14.85h-6.627v-14.85h-2.728v-4.423h2.728v-1.86c0-2.147,0.717-3.84,2.153-5.073
						c1.434-1.229,3.276-1.848,5.52-1.848c1.469,0,2.918,0.261,4.346,0.777l-0.866,5.061C24.055-61.656,23.306-61.831,22.806-61.831
						z"/>
				</g>
			</g>
		</g>
	</g>
</g>
</svg>
